<svg xmlns="http://www.w3.org/2000/svg" width="50.3" height="50" viewBox="0 0 50.3 50">
  <defs>
    <style>
      .cls-1, .cls-2, .cls-3, .cls-4 {
        fill: none;
        stroke: #363532;
        stroke-width: 2px;
      }

      .cls-1 {
        stroke-linecap: round;
      }

      .cls-1, .cls-2, .cls-3 {
        stroke-linejoin: round;
      }

      .cls-2 {
        stroke-linecap: square;
      }

      .cls-4 {
        stroke-miterlimit: 10;
      }
    </style>
  </defs>
  <title>Asset 22</title>
  <g id="Layer_2" data-name="Layer 2">
    <g id="Icons">
      <g>
        <line class="cls-1" x1="28.2" y1="6.3" x2="28.2" y2="1"/>
        <line class="cls-1" x1="44" y1="22.1" x2="49.3" y2="22.1"/>
        <line class="cls-1" x1="39.4" y1="33.3" x2="43.1" y2="37"/>
        <line class="cls-1" x1="13.3" y1="7.2" x2="17.1" y2="10.9"/>
        <line class="cls-1" x1="43.1" y1="7.2" x2="39.4" y2="10.9"/>
        <line class="cls-1" x1="36.4" y1="2.7" x2="34.3" y2="7.6"/>
        <line class="cls-1" x1="47.8" y1="14.2" x2="42.8" y2="16.2"/>
        <line class="cls-1" x1="34.2" y1="36.7" x2="36.2" y2="41.7"/>
        <line class="cls-1" x1="20.3" y1="2.6" x2="22.3" y2="7.5"/>
        <line class="cls-1" x1="42.8" y1="28.2" x2="47.7" y2="30.3"/>
        <path class="cls-2" d="M24.9,37.1a2.3,2.3,0,0,0-2.5-.6l-4.1,1.4a52.6,52.6,0,0,1-4.8-6.3h-.1a76.9,76.9,0,0,1-4.1-6.8l2.8-3.3a2.2,2.2,0,0,0,.3-2.6l-3-7A1.7,1.7,0,0,0,8,10.8c-1.2-.2-5.1,2.4-5.1,2.4C.9,14.4,1,15.8,1,15.8.6,24.4,7.9,34.2,8.5,35s7,11.1,15.1,13.9c0,0,1.3.6,3.2-.9,0,0,3.8-2.7,4.1-3.8a1.8,1.8,0,0,0-.6-1.8Z"/>
        <g>
          <polyline class="cls-3" points="33.5 27.9 33.5 15.9 28.4 24 36.6 24"/>
          <path class="cls-4" d="M20.3,19.3v-.6a2.7,2.7,0,0,1,2.8-2.8,2.8,2.8,0,0,1,2.8,2.8,3.9,3.9,0,0,1-1.5,2.8c-1.1.9-3.7,3-4,5.3h6.3"/>
        </g>
      </g>
    </g>
  </g>
</svg>