<svg xmlns="http://www.w3.org/2000/svg" width="50" height="50" viewBox="0 0 50 50">
  <defs>
    <style>
      .cls-1, .cls-2 {
        fill: none;
        stroke: #363532;
        stroke-width: 2px;
      }

      .cls-1 {
        stroke-miterlimit: 10;
      }

      .cls-2 {
        stroke-linecap: round;
        stroke-linejoin: round;
      }
    </style>
  </defs>
  <title>Asset 20</title>
  <g id="Layer_2" data-name="Layer 2">
    <g id="Icons">
      <g>
        <g>
          <path class="cls-1" d="M18.2,36.7c-3.3-4.4-1.9-13.6,4.1-17.7a33,33,0,0,1,16.6-5.2,29.1,29.1,0,0,1-1.8,17.5c-2.8,6.4-10.6,9.9-15.9,7.7a9,9,0,0,1-2.8-2"/>
          <path class="cls-2" d="M31.8,23.1S27,34.7,10.5,40.2"/>
        </g>
        <polyline class="cls-1" points="13.2 32.3 1 32.3 1 17.7 17.7 17.7 17.7 1 32.3 1 32.3 11.6"/>
        <polyline class="cls-1" points="32.3 40.9 32.3 49 17.7 49 17.7 41"/>
        <polyline class="cls-1" points="42.7 17.7 49 17.7 49 32.3 40.2 32.3"/>
      </g>
    </g>
  </g>
</svg>