<svg xmlns="http://www.w3.org/2000/svg" width="46.1" height="50" viewBox="0 0 46.1 50">
  <defs>
    <style>
      .cls-1, .cls-2, .cls-3 {
        fill: none;
        stroke: #363532;
        stroke-width: 2px;
      }

      .cls-1, .cls-2 {
        stroke-miterlimit: 10;
      }

      .cls-2, .cls-3 {
        stroke-linecap: round;
      }

      .cls-3 {
        stroke-linejoin: round;
      }
    </style>
  </defs>
  <title>Asset 23</title>
  <g id="Layer_2" data-name="Layer 2">
    <g id="Icons">
      <g>
        <path class="cls-1" d="M28.4,8.7s10.3-1.5,10,7.9c0,0,3,5.4-3.7,5.5,0,0-3.4,4.8-8.7.7"/>
        <path class="cls-2" d="M16.3,10.9c-.2-1,.1-3.4,6.2-4.1.6-.1,6.6-.9,6.1,4.4"/>
        <path class="cls-2" d="M18.8,16.9s-.8,3.4,1.3,5.3"/>
        <path class="cls-2" d="M23.3,16.1s3.4.8,5.8-1.1"/>
        <path class="cls-2" d="M34.1,15.4s2.3-.9,4.5,1.9"/>
        <path class="cls-2" d="M22.6,12.1s-3.7-1.4-6.1-.9l-.8.2s-9.4,7.7,3.2,9.5c0,0,3.7,5.4,8.2.4,0,0,2.4-1.9,3.6-1.9"/>
        <g>
          <path class="cls-3" d="M38.9,49a40.9,40.9,0,0,1-.7-9.9s1.3-6.1,4-10c0,0,8.7-14.7-4.2-24.2a23.7,23.7,0,0,0-25.1-.6s-7.7,3.3-6.1,14c0,0,.3,2.9-.6,4.3l-5.1,6a1.4,1.4,0,0,0,1.4,2l3.1.6A13.5,13.5,0,0,1,7,35.7,23.9,23.9,0,0,1,6.7,40s-1.1,2.9.6,4.2,1.6,1.5,10.7-.4c0,0,.8.4,1.4,5.1"/>
          <line class="cls-3" x1="7.4" y1="35.8" x2="11.3" y2="35.9"/>
        </g>
      </g>
    </g>
  </g>
</svg>
